<svg xmlns="http://www.w3.org/2000/svg" xmlns:xlink="http://www.w3.org/1999/xlink" width="20" height="20" viewBox="0 0 20 20">
  <defs>
    <clipPath id="clip-path">
      <rect id="Rectangle_34" data-name="Rectangle 34" width="20" height="20" transform="translate(1118 40)"/>
    </clipPath>
  </defs>
  <g id="Mask_Group_3" data-name="Mask Group 3" transform="translate(-1118 -40)" clip-path="url(#clip-path)">
    <path id="icons8-location" d="M11.3,1.6A8.5,8.5,0,0,0,4.84,15.62l0,0,0,0s3.617,4.127,4.9,5.356a2.258,2.258,0,0,0,3.1,0c1.468-1.4,4.907-5.358,4.907-5.358l0,0,0,0A8.5,8.5,0,0,0,11.3,1.6Zm0,1.5a7,7,0,0,1,5.321,11.544c-.007.008-3.525,4.032-4.806,5.253a.731.731,0,0,1-1.031,0c-1.07-1.021-4.8-5.241-4.806-5.253h0A7,7,0,0,1,11.3,3.1Zm0,4a2.979,2.979,0,0,0-2.249.955,3.157,3.157,0,0,0,0,4.091A2.979,2.979,0,0,0,11.3,13.1a2.979,2.979,0,0,0,2.249-.955,3.157,3.157,0,0,0,0-4.091A2.979,2.979,0,0,0,11.3,7.1Zm0,1.5a1.382,1.382,0,0,1,1.127.451,1.661,1.661,0,0,1,0,2.1A1.382,1.382,0,0,1,11.3,11.6a1.382,1.382,0,0,1-1.127-.451,1.661,1.661,0,0,1,0-2.1A1.382,1.382,0,0,1,11.3,8.6Z" transform="translate(1116.697 38.401)"/>
  </g>
</svg>
