<svg xmlns="http://www.w3.org/2000/svg" width="146" height="80" viewBox="0 0 146 80">
  <g id="logo" transform="translate(-84 -8)">
    <path id="Path_15" data-name="Path 15" d="M3.813,2.23V-6.61L8.9,2.23H11.82L6.736-6.61l5.058-8.79H8.871L3.813-6.61V-15.4H1.271V2.23ZM12.15-15.4,16.268-2.858l-1.7,5.087L17.259,2.2l5.414-17.6H20L18.4-9.759c-.559,2.015-.864,3.249-1.347,5.062l-.1-.025c.483-1.889.2-3.022-.407-5.012L14.819-15.4ZM27.071,2.23V-12.881H38.51V2.23h2.542V-15.4H24.529V2.23Zm17.539,0H49.8L54.879-15.4V2.23h2.542V-15.4H52.236L47.152,2.23V-15.4H44.61ZM0,12.3H3.3V27.415H5.846V12.3h3.3V9.785H0Zm9.532,6.3a9.035,9.035,0,0,0,9.278,9.193A9.035,9.035,0,0,0,28.088,18.6,9.035,9.035,0,0,0,18.81,9.407,9.035,9.035,0,0,0,9.532,18.6Zm2.542,0a6.56,6.56,0,0,1,6.736-6.674A6.56,6.56,0,0,1,25.546,18.6a6.56,6.56,0,0,1-6.736,6.674A6.56,6.56,0,0,1,12.074,18.6Zm17.158,8.815H31.8l2.542-17.63,2.542,17.63H39.45L36.908,9.785H31.774Zm12.506,0h9.3a5.039,5.039,0,1,0,0-10.074H44.28V9.785H41.738Zm9.329-7.556a2.52,2.52,0,1,1,0,5.037H44.28V19.859ZM61.31,27.415v-8.84l5.084,8.84h2.923l-5.084-8.84,5.058-8.79H66.369l-5.058,8.79V9.785H58.768v17.63ZM69.444,18.6A9.278,9.278,0,0,0,88,18.6a9.278,9.278,0,0,0-18.556,0Zm2.542,0a6.736,6.736,0,0,1,13.472,0,6.736,6.736,0,0,1-13.472,0ZM0,37.489H3.3V52.6H5.846V37.489h3.3V34.97H0ZM9.481,34.97,13.6,47.513,11.9,52.6l2.694-.025L20,34.97H17.336l-1.6,5.641c-.559,2.015-.864,3.249-1.347,5.062l-.1-.025c.483-1.889.2-3.022-.407-5.012L12.15,34.97Zm9.125,2.519h7.3V52.6h2.542V37.489h7.3V34.97H18.606Z" transform="translate(142 35.4)"/>
    <path id="Path_16" data-name="Path 16" d="M55,52.651H7V10.791A2.806,2.806,0,0,1,9.824,8H52.176A2.806,2.806,0,0,1,55,10.791Z" transform="translate(77 11.162)" fill="#fece49"/>
    <path id="Path_17" data-name="Path 17" d="M53.588,44.581H8.412A1.4,1.4,0,0,1,7,43.186V39H55v4.186A1.4,1.4,0,0,1,53.588,44.581Z" transform="translate(77 23.418)" fill="#f5be00"/>
    <ellipse id="Ellipse_5" data-name="Ellipse 5" cx="2.824" cy="2.791" rx="2.824" ry="2.791" transform="translate(115.059 21.953)" fill="#c48c00"/>
    <ellipse id="Ellipse_6" data-name="Ellipse 6" cx="2.824" cy="2.791" rx="2.824" ry="2.791" transform="translate(95.294 21.953)" fill="#c48c00"/>
    <path id="Path_18" data-name="Path 18" d="M37.176,18.14a1.4,1.4,0,0,1-1.412-1.4V11.163a8.471,8.471,0,0,0-16.941,0v5.581a1.412,1.412,0,0,1-2.824,0V11.163a11.295,11.295,0,0,1,22.588,0v5.581A1.4,1.4,0,0,1,37.176,18.14Z" transform="translate(80.706 8)" fill="#bd370a"/>
    <path id="Path_19" data-name="Path 19" d="M35.322,35.995a11.228,11.228,0,1,0-16.1,0l7.165,7.153a1.251,1.251,0,0,0,1.765,0S35.312,36.006,35.322,35.995Z" transform="translate(80.725 14.721)" fill="#bd370a"/>
    <ellipse id="Ellipse_7" data-name="Ellipse 7" cx="4.169" cy="4.12" rx="4.169" ry="4.12" transform="translate(103.831 38.697)" fill="#fff"/>
  </g>
</svg>
