<svg xmlns="http://www.w3.org/2000/svg" xmlns:xlink="http://www.w3.org/1999/xlink" width="16" height="16" viewBox="0 0 16 16">
  <defs>
    <clipPath id="clip-path">
      <rect id="Rectangle_33" data-name="Rectangle 33" width="16" height="16" transform="translate(516 40)"/>
    </clipPath>
  </defs>
  <g id="Mask_Group_2" data-name="Mask Group 2" transform="translate(-516 -40)" clip-path="url(#clip-path)">
    <path id="icons8-search" d="M9.111,2.667a6.444,6.444,0,1,0,4.057,11.444l4.36,4.36a.667.667,0,1,0,.943-.943l-4.36-4.36a6.438,6.438,0,0,0-5-10.5ZM9.111,4A5.112,5.112,0,0,1,12.8,12.654a.667.667,0,0,0-.142.142A5.111,5.111,0,1,1,9.111,4Z" transform="translate(513.333 37.334)"/>
  </g>
</svg>
